<svg xmlns="http://www.w3.org/2000/svg" xmlns:xlink="http://www.w3.org/1999/xlink" version="1.1" x="0px" y="0px" viewBox="0 0 100 125" style="enable-background:new 0 0 100 100;" xml:space="preserve"><path d="M11,12c4.609375,0,6.8642578,1.2890625,9.2529297,2.6538086c2.5097656,1.4345703,5.1054688,2.9174805,10.2451172,2.9174805  s7.7353516-1.4829102,10.2451172-2.9174805C43.1318359,13.2890625,45.3876953,12,49.9970703,12  c4.6103516,0,6.8662109,1.2890625,9.2548828,2.6538086c2.5097656,1.4345703,5.1054688,2.9174805,10.2460938,2.9174805  s7.7363281-1.4829102,10.2470703-2.9174805C82.1337891,13.2890625,84.3896484,12,89,12c0.5527344,0,1-0.4477539,1-1  s-0.4472656-1-1-1c-5.140625,0-7.7363281,1.4829102-10.2470703,2.9174805  c-2.3886719,1.3647461-4.6445312,2.6538086-9.2548828,2.6538086c-4.609375,0-6.8652344-1.2890625-9.2539062-2.6538086  C57.734375,11.4833984,55.1386719,10,49.9970703,10c-5.140625,0-7.7363281,1.4833984-10.2460938,2.9174805  c-2.3886719,1.3647461-4.6445312,2.6538086-9.2529297,2.6538086c-4.609375,0-6.8642578-1.2890625-9.2529297-2.6538086  C18.7353516,11.4829102,16.1396484,10,11,10c-0.5527344,0-1,0.4477539-1,1S10.4472656,12,11,12z"/><path d="M11,48.2143555c4.609375,0,6.8642578,1.2890625,9.2529297,2.6538086  c2.5097656,1.4345703,5.1054688,2.9174805,10.2451172,2.9174805s7.7353516-1.4829102,10.2451172-2.9174805  c2.3886719-1.3647461,4.6445312-2.6538086,9.2539062-2.6538086c4.6103516,0,6.8662109,1.2890625,9.2548828,2.6538086  c2.5097656,1.4345703,5.1054688,2.9174805,10.2460938,2.9174805s7.7363281-1.4829102,10.2470703-2.9174805  C82.1337891,49.503418,84.3896484,48.2143555,89,48.2143555c0.5527344,0,1-0.4477539,1-1s-0.4472656-1-1-1  c-5.140625,0-7.7363281,1.4829102-10.2470703,2.9174805c-2.3886719,1.3647461-4.6445312,2.6538086-9.2548828,2.6538086  c-4.609375,0-6.8652344-1.2890625-9.2539062-2.6538086c-2.5097656-1.434082-5.1054688-2.9174805-10.2470703-2.9174805  c-5.140625,0-7.7363281,1.4833984-10.2460938,2.9174805c-2.3886719,1.3647461-4.6445312,2.6538086-9.2529297,2.6538086  c-4.609375,0-6.8642578-1.2890625-9.2529297-2.6538086C18.7353516,47.6972656,16.1396484,46.2143555,11,46.2143555  c-0.5527344,0-1,0.4477539-1,1S10.4472656,48.2143555,11,48.2143555z"/><path d="M11,84.4287109c4.609375,0,6.8642578,1.2890625,9.2529297,2.6538086C22.7626953,88.5170898,25.3583984,90,30.4980469,90  s7.7353516-1.4829102,10.2451172-2.9174805c2.3886719-1.3647461,4.6445312-2.6538086,9.2539062-2.6538086  c4.6103516,0,6.8662109,1.2890625,9.2548828,2.6538086C61.7617188,88.5170898,64.3574219,90,69.4980469,90  s7.7363281-1.4829102,10.2470703-2.9174805C82.1337891,85.7177734,84.3896484,84.4287109,89,84.4287109c0.5527344,0,1-0.4477539,1-1  s-0.4472656-1-1-1c-5.140625,0-7.7363281,1.4829102-10.2470703,2.9174805C76.3642578,86.7109375,74.1083984,88,69.4980469,88  c-4.609375,0-6.8652344-1.2890625-9.2539062-2.6538086c-2.5097656-1.434082-5.1054688-2.9174805-10.2470703-2.9174805  c-5.140625,0-7.7363281,1.4833984-10.2460938,2.9174805C37.3623047,86.7109375,35.1064453,88,30.4980469,88  c-4.609375,0-6.8642578-1.2890625-9.2529297-2.6538086C18.7353516,83.9116211,16.1396484,82.4287109,11,82.4287109  c-0.5527344,0-1,0.4477539-1,1S10.4472656,84.4287109,11,84.4287109z"/><text x="0" y="115" fill="#000000" font-size="5px" font-weight="bold" font-family="'Helvetica Neue', Helvetica, Arial-Unicode, Arial, Sans-serif">Created by Made by Made</text><text x="0" y="120" fill="#000000" font-size="5px" font-weight="bold" font-family="'Helvetica Neue', Helvetica, Arial-Unicode, Arial, Sans-serif">from the Noun Project</text></svg>